<?xml version="1.0" encoding="iso-8859-1"?>
<!-- Generator: Adobe Illustrator 19.0.0, SVG Export Plug-In . SVG Version: 6.00 Build 0)  -->
<svg version="1.1" id="Capa_1" xmlns="http://www.w3.org/2000/svg" xmlns:xlink="http://www.w3.org/1999/xlink" x="0px" y="0px"
	 viewBox="0 0 512.056 512.056" style="enable-background:new 0 0 512.056 512.056;" xml:space="preserve">
<g>
	<g>
		<path d="M320.028,120.376l38.4-102.4c2.56-7.68-2.56-17.92-12.8-17.92c-117.76-2.56-87.04,84.48-174.08,28.16
			c-10.24-7.68-23.04,5.12-17.92,15.36l35.84,76.8c-79.36,48.64-138.24,174.08-138.24,263.68c0,112.64,92.16,128,204.8,128
			s204.8-15.36,204.8-128C460.828,291.896,401.948,166.456,320.028,120.376z M256.028,281.656c10.24,0,17.92,2.56,25.6,5.12
			c30.72,10.24,51.2,38.4,51.2,71.68c0,33.28-20.48,61.44-51.2,71.68v30.72h-51.2v-30.72c-30.72-10.24-51.2-38.4-51.2-71.68h51.2
			c0,15.36,12.8,25.6,25.6,25.6c15.36,0,25.6-10.24,25.6-25.6c0-12.8-10.24-25.6-25.6-25.6c-7.68,0-17.92-2.56-25.6-5.12
			c-30.72-10.24-51.2-38.4-51.2-71.68c0-33.28,20.48-61.44,51.2-71.68v-30.72h51.2v30.72c30.72,10.24,51.2,38.4,51.2,71.68h-51.2
			c0-12.8-10.24-25.6-25.6-25.6c-12.8,0-25.6,12.8-25.6,25.6C230.428,271.416,243.228,281.656,256.028,281.656z"/>
	</g>
</g>
<g>
</g>
<g>
</g>
<g>
</g>
<g>
</g>
<g>
</g>
<g>
</g>
<g>
</g>
<g>
</g>
<g>
</g>
<g>
</g>
<g>
</g>
<g>
</g>
<g>
</g>
<g>
</g>
<g>
</g>
</svg>
