<?xml version="1.0" ?><!DOCTYPE svg  PUBLIC '-//W3C//DTD SVG 1.1//EN'  'http://www.w3.org/Graphics/SVG/1.1/DTD/svg11.dtd'><svg enable-background="new 0 0 100 100" height="100px" id="Calque_3" version="1.1" viewBox="0 0 100 100" width="100px" xml:space="preserve" xmlns="http://www.w3.org/2000/svg" xmlns:xlink="http://www.w3.org/1999/xlink"><path d="M61.92,79.41L54.86,91.5c-1.03,1.77-3.021,2.66-4.97,2.35l9.35-16L61.92,79.41z"/><polygon points="57.39,76.77 47.87,93.06 45.11,91.45 54.63,75.15 "/><polygon points="52.78,74.07 43.26,90.37 40.5,88.75 50.01,72.46 "/><rect height="3.195" transform="matrix(0.5042 -0.8636 0.8636 0.5042 -47.1453 75.324)" width="18.863" x="32.594" y="77.122"/><polygon points="43.55,68.69 34.04,84.98 31.27,83.37 40.79,67.07 "/><polygon points="38.94,65.99 29.42,82.29 26.66,80.67 36.18,64.38 "/><polygon points="34.33,63.3 24.81,79.59 22.05,77.98 31.57,61.69 "/><polygon points="29.72,60.61 20.2,76.9 17.44,75.29 26.95,58.99 "/><path d="M25.11,57.91l-9.35,16c-1.23-1.53-1.43-3.71-0.4-5.48l7.06-12.08L25.11,57.91z"/><path d="M66.58,25.79c-0.21,0.36-1.59,1.32-5.91,2.22c-0.36-0.83-0.56-1.76-0.56-2.73c0-0.55,0.069-1.09,0.189-1.61  C64.88,24.47,66.35,25.42,66.58,25.79z"/><path d="M82.47,48.48l-4.729,37c-0.17,1.289-0.83,2.43-1.86,3.229s-2.31,1.15-3.59,0.99l-12.93-1.66L82.47,48.48z"/><path d="M39.59,22.7l-3.91,6.71c-10.12-0.58-14.29-2.28-14.74-3.03c0.14-0.21,1.1-1.23,5.94-2.24  C30.32,23.43,34.78,22.92,39.59,22.7z"/><path d="M73.99,25.28c0,3.83-3.11,6.95-6.94,6.95c-2.04,0-3.87-0.89-5.14-2.29c6.109-1.39,6.84-3.03,6.83-4.17  c-0.021-1.2-0.851-2.88-7.59-4.13c1.22-1.98,3.409-3.3,5.899-3.3C70.88,18.34,73.99,21.46,73.99,25.28z"/><path d="M85.17,39.21c-0.11,0.45-0.29,0.89-0.53,1.3L63,77.56L23.5,54.5l18.63-31.89c0.52-0.01,1.05-0.02,1.58-0.03  c5.26-0.06,10.34,0.2,14.47,0.76c-0.14,0.63-0.21,1.28-0.21,1.94c0,3.21,1.67,6.03,4.181,7.65h0.01c1.41,0.91,3.09,1.44,4.89,1.44  c5.01,0,9.08-4.08,9.08-9.09c0-5.01-4.07-9.08-9.08-9.08c-3.569,0-6.66,2.07-8.149,5.08c-4.311-0.62-9.67-0.91-15.21-0.84h-0.3  l1.76-3c0.26-0.45,0.59-0.85,0.98-1.19c0.64-0.56,1.42-0.95,2.28-1.12l0.13-0.03l5.9-2.91c2.88-1.42,5.579-2.75,7.97-3.93  c5.51-2.71,10.79-2.89,14.88-0.5c4.09,2.38,6.53,7.07,6.87,13.2c0.14,2.52,0.29,5.33,0.46,8.34L85.17,39.21z"/></svg>